<svg xmlns="http://www.w3.org/2000/svg" width="30.331" height="47.77" viewBox="0 0 30.331 47.77">
  <g id="Dragon" transform="translate(-42.595 -72.389)">
    <g id="Group_15" data-name="Group 15" transform="translate(43.012 72.807)">
      <path id="Path_11" data-name="Path 11" d="M73.208,84.817a28.788,28.788,0,0,1,6.275.746c-1.744-4.108-4.443-5.868-6.3-5.859s-4.538,1.793-6.244,5.917A28.824,28.824,0,0,1,73.208,84.817Z" transform="translate(-58.636 -79.704)" fill="#fff" stroke="#1a1818" stroke-linejoin="bevel" stroke-width="0.834"/>
      <path id="Path_12" data-name="Path 12" d="M78.664,95.662c1.064,2.621,2.227,5.155,2.652,6.615.679,2.334.25,3.471.526,5.339s.935,3.684-.851,3.693l-10.343.048-10.344.048c-1.786.009-1.144-1.814-.885-3.685s-.181-3,.476-5.344c.411-1.464,1.55-4.008,2.59-6.639" transform="translate(-55.976 -85.112)" fill="#fff" stroke="#1a1818" stroke-linejoin="bevel" stroke-width="0.834"/>
      <path id="Path_13" data-name="Path 13" d="M77.136,88.209c.651,1.6,1.1,3.1,1.741,4.665C79.941,95.5,81.1,98.03,81.528,99.49a10.463,10.463,0,0,1,.417,3.186s.012-3.635-1.464-3.664c-.768-.015-1.181.139-1.294.617-.385,1.624-.847,4.022-1.271,6.081a1.545,1.545,0,0,1-1.512,1.232l-5.551.026-5.551.026a1.544,1.544,0,0,1-1.523-1.218c-.444-2.055-.928-4.448-1.328-6.069-.118-.476-.532-.627-1.3-.6-1.476.043-1.431,3.678-1.431,3.678a10.47,10.47,0,0,1,.387-3.19c.411-1.464,1.55-4.008,2.59-6.639.622-1.573,1.061-3.074,1.7-4.682a34.646,34.646,0,0,1,6.367-.831A34.652,34.652,0,0,1,77.136,88.209Z" transform="translate(-56.189 -82.325)" fill="#fff" stroke="#1a1818" stroke-linejoin="bevel" stroke-width="0.834"/>
      <path id="WING" d="M58.069,123.772l-3.244,8.289a6.482,6.482,0,0,0-.446,2.39l.029,6.224a.4.4,0,0,0,.349.4l3.762.5" transform="translate(-54.379 -94.638)" fill="#fff" stroke="#1a1818" stroke-linejoin="bevel" stroke-width="0.834"/>
      <path id="WING-2" data-name="WING" d="M93.075,123.617l3.321,8.258a6.473,6.473,0,0,1,.468,2.386l.029,6.224a.4.4,0,0,1-.345.4l-3.757.537" transform="translate(-67.396 -94.586)" fill="#fff" stroke="#1a1818" stroke-linejoin="bevel" stroke-width="0.834"/>
      <path id="TRUNK" d="M71.031,139.954l10.6-.05a.4.4,0,0,0,.395-.4l-.094-20.057-.335-.31-10.661.05-10.66.05-.333.313.094,20.057a.4.4,0,0,0,.4.395Z" transform="translate(-56.264 -93.068)" fill="#fff" stroke="#1a1818" stroke-linejoin="bevel" stroke-width="0.834"/>
    </g>
  </g>
</svg>
